<svg version="1.1" xmlns="http://www.w3.org/2000/svg" viewBox="0 0 808 254" width="1616" height="508">
  <!-- svg-source:excalidraw -->
  
  <defs>
    <style class="style-fonts">
      @font-face {
        font-family: "Virgil";
        src: url("https://excalidraw.com/Virgil.woff2");
      }
      @font-face {
        font-family: "Cascadia";
        src: url("https://excalidraw.com/Cascadia.woff2");
      }
      @font-face {
        font-family: "Assistant";
        src: url("https://excalidraw.com/Assistant-Regular.woff2");
      }
    </style>
    
  </defs>
  <rect x="0" y="0" width="808" height="254" fill="#ffffff"></rect><g stroke-linecap="round" transform="translate(10 70) rotate(0 150.5 42)"><path d="M21 0 C80.77 -2.41, 139.32 -0.37, 280 0 M21 0 C91.31 -1.75, 161.62 -2.29, 280 0 M280 0 C292.93 1.61, 300.55 7.73, 301 21 M280 0 C293.99 -0.24, 299.67 6.08, 301 21 M301 21 C302.86 32.32, 300.33 42.41, 301 63 M301 21 C302.33 31.15, 302.06 41.68, 301 63 M301 63 C300.97 75.68, 295.65 85.96, 280 84 M301 63 C298.94 78.36, 292.13 83.35, 280 84 M280 84 C209.96 85.02, 143.24 85.39, 21 84 M280 84 C211.61 83.23, 141.23 83.9, 21 84 M21 84 C5.44 84.11, 1.05 77.51, 0 63 M21 84 C7.82 86.28, 0.26 78.6, 0 63 M0 63 C0.06 47.47, 1.04 33.25, 0 21 M0 63 C0.58 49.15, 0.71 36.6, 0 21 M0 21 C-1.54 8.09, 5.81 -1.31, 21 0 M0 21 C-1.34 6.23, 8.54 -1.46, 21 0" stroke="#1e1e1e" stroke-width="2" fill="none"></path></g><g stroke-linecap="round" transform="translate(312.5 69) rotate(0 47.5 42)"><path d="M21 0 C40.38 -0.74, 59.94 0.2, 74 0 M21 0 C38.63 -0.67, 57.05 0.26, 74 0 M74 0 C88.35 -0.22, 95.97 7.33, 95 21 M74 0 C88.46 1.82, 95.13 9.11, 95 21 M95 21 C93.69 35.76, 93.74 51.42, 95 63 M95 21 C94.74 38.05, 95.74 53.43, 95 63 M95 63 C95.7 77.32, 87.24 83.85, 74 84 M95 63 C96.26 78.75, 86.88 83.13, 74 84 M74 84 C54.36 84.34, 34.31 84.13, 21 84 M74 84 C61.75 84.36, 47.87 83.82, 21 84 M21 84 C5.04 85.45, 0.35 78.23, 0 63 M21 84 C9.3 83.29, -1.23 77.54, 0 63 M0 63 C1.21 48.92, -0.93 36.65, 0 21 M0 63 C1.37 48.38, -0.02 34, 0 21 M0 21 C-0.99 6.32, 7.01 1.61, 21 0 M0 21 C1.37 8.14, 6.56 1.97, 21 0" stroke="#1e1e1e" stroke-width="2" fill="none"></path></g><g transform="translate(338.6000003814697 98.5) rotate(0 21.399999618530273 12.5)"><text x="21.399999618530273" y="17.52" font-family="Virgil, Segoe UI Emoji" font-size="20px" fill="#1e1e1e" text-anchor="middle" style="white-space: pre;" direction="ltr" dominant-baseline="alphabetic">next</text></g><g stroke-linecap="round" transform="translate(409.5 69) rotate(0 47.5 42)"><path d="M21 0 C32.34 -1.5, 41.34 -0.7, 74 0 M21 0 C34.09 -0.85, 46.53 0.19, 74 0 M74 0 C87.7 1.38, 94.99 6, 95 21 M74 0 C86.43 -1.03, 96.96 8.03, 95 21 M95 21 C94.36 34.4, 95.47 49.13, 95 63 M95 21 C94.5 35.28, 95.97 49.99, 95 63 M95 63 C94.33 76.32, 86.18 84.39, 74 84 M95 63 C96.65 77.41, 89.63 82.88, 74 84 M74 84 C60.72 83.82, 45.11 84.27, 21 84 M74 84 C58.33 82.64, 40.71 84.56, 21 84 M21 84 C5.21 83.31, -0.68 77.74, 0 63 M21 84 C6.27 83.18, 1.03 75.14, 0 63 M0 63 C-1.22 50.07, -1.04 32.37, 0 21 M0 63 C0.31 54.37, -0.77 44.91, 0 21 M0 21 C-1.75 5.69, 8.38 -0.57, 21 0 M0 21 C-0.21 8.08, 7.27 -0.69, 21 0" stroke="#1e1e1e" stroke-width="2" fill="none"></path></g><g transform="translate(429.29999923706055 98.5) rotate(0 27.700000762939453 12.5)"><text x="27.700000762939453" y="17.52" font-family="Virgil, Segoe UI Emoji" font-size="20px" fill="#1e1e1e" text-anchor="middle" style="white-space: pre;" direction="ltr" dominant-baseline="alphabetic">start</text></g><g transform="translate(105 209) rotate(0 35.25 17.5)"><text x="0" y="24.528" font-family="Virgil, Segoe UI Emoji" font-size="28px" fill="#1e1e1e" text-anchor="start" style="white-space: pre;" direction="ltr" dominant-baseline="alphabetic">chunk</text></g><g stroke-linecap="round" transform="translate(506.5 69) rotate(0 47.5 42)"><path d="M21 0 C41.82 -0.61, 59.43 0.58, 74 0 M21 0 C40.56 -0.22, 58.14 0.34, 74 0 M74 0 C87.24 -1.46, 93.07 8.49, 95 21 M74 0 C89.77 -0.49, 93.67 9.28, 95 21 M95 21 C96.75 31.49, 96.25 44.88, 95 63 M95 21 C95.96 28.65, 94.4 39.19, 95 63 M95 63 C94.8 78.11, 86.76 83.02, 74 84 M95 63 C95.7 78.43, 88.87 83.3, 74 84 M74 84 C56.1 83.68, 40.63 81.95, 21 84 M74 84 C55.39 83.05, 37.31 83.81, 21 84 M21 84 C5.4 85.9, -0.14 78.09, 0 63 M21 84 C4.83 82.06, 2.1 78.83, 0 63 M0 63 C0.21 48.82, -1.03 36.32, 0 21 M0 63 C1.15 49.72, 0.11 37.6, 0 21 M0 21 C-0.63 8.08, 7.33 -1.36, 21 0 M0 21 C-0.78 6.82, 6.27 1.18, 21 0" stroke="#1e1e1e" stroke-width="2" fill="none"></path></g><g transform="translate(539 98.5) rotate(0 15 12.5)"><text x="15" y="17.52" font-family="Virgil, Segoe UI Emoji" font-size="20px" fill="#1e1e1e" text-anchor="middle" style="white-space: pre;" direction="ltr" dominant-baseline="alphabetic">cur</text></g><g stroke-linecap="round" transform="translate(603.5 69) rotate(0 47.5 42)"><path d="M21 0 C39.15 0.81, 59 2.1, 74 0 M21 0 C39.65 -0.06, 57.81 -1.16, 74 0 M74 0 C88.55 1.83, 93.67 7.35, 95 21 M74 0 C86.5 -0.3, 93.14 8.61, 95 21 M95 21 C94.06 31.67, 95.45 42.53, 95 63 M95 21 C95.17 32.7, 94.29 45.35, 95 63 M95 63 C96.53 77.58, 86.97 82.27, 74 84 M95 63 C95.67 78.9, 87.02 83.95, 74 84 M74 84 C62.25 84.75, 51.23 81.94, 21 84 M74 84 C57.18 83.03, 42.34 83.3, 21 84 M21 84 C5.32 84.49, -1.49 78.4, 0 63 M21 84 C9.19 82.11, 0.25 76.41, 0 63 M0 63 C-1.04 56.28, 1.73 44.28, 0 21 M0 63 C0.3 53.4, -0.33 41.45, 0 21 M0 21 C-0.26 6.6, 7.94 -0.94, 21 0 M0 21 C-1.79 4.84, 7.97 1.03, 21 0" stroke="#1e1e1e" stroke-width="2" fill="none"></path></g><g transform="translate(629.8333339691162 98.5) rotate(0 21.16666603088379 12.5)"><text x="21.16666603088379" y="17.52" font-family="Virgil, Segoe UI Emoji" font-size="20px" fill="#1e1e1e" text-anchor="middle" style="white-space: pre;" direction="ltr" dominant-baseline="alphabetic">align</text></g><g stroke-linecap="round"><g transform="translate(455 68) rotate(0 -221 -28.5)"><path d="M0 0 C0 0, 0 0, 0 0 M0 0 C0 0, 0 0, 0 0 M0 0 C0 -16.68, 0 -33.37, 0 -58 M0 0 C0 -19.25, 0 -38.51, 0 -58 M0 -58 C-132.75 -58, -265.5 -58, -442 -58 M0 -58 C-114.01 -58, -228.03 -58, -442 -58 M-442 -58 C-442 -43.06, -442 -28.11, -442 1 M-442 -58 C-442 -42.08, -442 -26.16, -442 1" stroke="#1e1e1e" stroke-width="2" fill="none"></path></g><g transform="translate(455 68) rotate(0 -221 -28.5)"><path d="M-450.55 -22.49 C-448.49 -16.83, -446.43 -11.17, -442 1 M-450.55 -22.49 C-447.19 -13.25, -443.82 -4.01, -442 1" stroke="#1e1e1e" stroke-width="2" fill="none"></path></g><g transform="translate(455 68) rotate(0 -221 -28.5)"><path d="M-433.45 -22.49 C-435.51 -16.83, -437.57 -11.17, -442 1 M-433.45 -22.49 C-436.81 -13.25, -440.18 -4.01, -442 1" stroke="#1e1e1e" stroke-width="2" fill="none"></path></g></g><mask></mask><g stroke-linecap="round"><g transform="translate(555 68) rotate(0 -121 -18.5)"><path d="M0 0 C0 -7.86, 0 -15.72, 0 -37 M0 0 C0 -12.59, 0 -25.17, 0 -37 M0 -37 C-69.78 -37, -139.56 -37, -242 -37 M0 -37 C-49.03 -37, -98.07 -37, -242 -37 M-242 -37 C-242 -25.44, -242 -13.87, -242 0 M-242 -37 C-242 -22.22, -242 -7.45, -242 0" stroke="#1971c2" stroke-width="2" fill="none"></path></g><g transform="translate(555 68) rotate(0 -121 -18.5)"><path d="M-248.33 -17.38 C-246.98 -13.69, -245.64 -10, -242 0 M-248.33 -17.38 C-246.17 -11.47, -244.02 -5.56, -242 0" stroke="#1971c2" stroke-width="2" fill="none"></path></g><g transform="translate(555 68) rotate(0 -121 -18.5)"><path d="M-235.67 -17.38 C-237.02 -13.69, -238.36 -10, -242 0 M-235.67 -17.38 C-237.83 -11.47, -239.98 -5.56, -242 0" stroke="#1971c2" stroke-width="2" fill="none"></path></g></g><mask></mask><g transform="translate(460 208) rotate(0 43.88333511352539 17.5)"><text x="0" y="24.528" font-family="Virgil, Segoe UI Emoji" font-size="28px" fill="#1e1e1e" text-anchor="start" style="white-space: pre;" direction="ltr" dominant-baseline="alphabetic">footer</text></g><g stroke-linecap="round"><g transform="translate(305 174) rotate(0 -58 0)"><path d="M0 0 C-27.91 0, -55.83 0, -116 0 M0 0 C-30.77 0, -61.53 0, -116 0" stroke="#e03131" stroke-width="2" fill="none"></path></g><g transform="translate(305 174) rotate(0 -58 0)"><path d="M-92.51 -8.55 C-98.16 -6.49, -103.81 -4.44, -116 0 M-92.51 -8.55 C-98.74 -6.28, -104.97 -4.01, -116 0" stroke="#e03131" stroke-width="2" fill="none"></path></g><g transform="translate(305 174) rotate(0 -58 0)"><path d="M-92.51 8.55 C-98.16 6.49, -103.81 4.44, -116 0 M-92.51 8.55 C-98.74 6.28, -104.97 4.01, -116 0" stroke="#e03131" stroke-width="2" fill="none"></path></g></g><mask></mask><g transform="translate(188 187.5) rotate(0 68.78333282470703 10)"><text x="0" y="14.016" font-family="Virgil, Segoe UI Emoji" font-size="16px" fill="#e03131" text-anchor="start" style="white-space: pre;" direction="ltr" dominant-baseline="alphabetic">allocate direction</text></g><g stroke-linecap="round"><g transform="translate(361.04878048780483 68) rotate(0 218.45121951219517 -9)"><path d="M0 0 C-0.02 0.75, -0.04 1.51, -0.05 2 M0 0 C-0.01 0.6, -0.03 1.2, -0.05 2 M-0.05 2 C-0.05 -5.15, -0.05 -12.3, -0.05 -20 M-0.05 2 C-0.05 -2.43, -0.05 -6.85, -0.05 -20 M-0.05 -20 C108.25 -20, 216.54 -20, 436.95 -20 M-0.05 -20 C103.46 -20, 206.98 -20, 436.95 -20" stroke="#2f9e44" stroke-width="2" fill="none"></path></g><g transform="translate(361.04878048780483 68) rotate(0 218.45121951219517 -9)"><path d="M413.46 -11.45 C422.3 -14.67, 431.14 -17.88, 436.95 -20 M413.46 -11.45 C420.48 -14.01, 427.51 -16.56, 436.95 -20" stroke="#2f9e44" stroke-width="2" fill="none"></path></g><g transform="translate(361.04878048780483 68) rotate(0 218.45121951219517 -9)"><path d="M413.46 -28.55 C422.3 -25.33, 431.14 -22.12, 436.95 -20 M413.46 -28.55 C420.48 -25.99, 427.51 -23.44, 436.95 -20" stroke="#2f9e44" stroke-width="2" fill="none"></path></g></g><mask></mask></svg>