<svg width="200" height="200" viewBox="0 0 200 200" xmlns="http://www.w3.org/2000/svg">
    <defs/>
    <path fill="#000000" stroke="none" d="M 0 0 L 200 0 L 200 200 L 0 200 Z"/>
    <path fill="none" stroke="#ffffff" d="M 100 100 L 100 100"/>
    <path fill="none" stroke="#ffffff" d="M 100 100 L 100 100"/>
    <path fill="none" stroke="#ffffff" d="M 100 100 L 100 100"/>
    <path fill="none" stroke="#ffffff" d="M 100 100 L 100 100"/>
    <path fill="none" stroke="#ffffff" d="M 100 100 L 100 100"/>
    <path fill="none" stroke="#0000ff" d="M 100 100 L 101.453125 94.17969"/>
    <path fill="none" stroke="#0000ff" d="M 101.453125 94.17969 L 103.69922 99.74219"/>
    <path fill="none" stroke="#0000ff" d="M 103.69922 99.74219 L 98.609375 96.5625"/>
    <path fill="none" stroke="#0000ff" d="M 98.609375 96.5625 L 104.59374 96.14452"/>
    <path fill="none" stroke="#0000ff" d="M 104.59374 96.14452 L 99.9961 100"/>
    <path fill="none" stroke="#0000ff" d="M 99.9961 100 L 104.296875 88.796875"/>
    <path fill="none" stroke="#0000ff" d="M 104.296875 88.796875 L 107.40234 100.38673"/>
    <path fill="none" stroke="#0000ff" d="M 107.40234 100.38673 L 98.078125 92.835945"/>
    <path fill="none" stroke="#0000ff" d="M 98.078125 92.835945 L 110.0625 93.46484"/>
    <path fill="none" stroke="#0000ff" d="M 110.0625 93.46484 L 100 100"/>
    <path fill="none" stroke="#0000ff" d="M 100 100 L 108.44922 84.10547"/>
    <path fill="none" stroke="#0000ff" d="M 108.44922 84.10547 L 110.953125 101.92969"/>
    <path fill="none" stroke="#0000ff" d="M 110.953125 101.92969 L 98.44923 88.98047"/>
    <path fill="none" stroke="#0000ff" d="M 98.44923 88.98047 L 116.17578 92.10547"/>
    <path fill="none" stroke="#0000ff" d="M 116.17578 92.10547 L 99.9961 99.9961"/>
    <path fill="none" stroke="#0000ff" d="M 99.9961 99.9961 L 113.76172 80.33594"/>
    <path fill="none" stroke="#0000ff" d="M 113.76172 80.33594 L 114.17969 104.33203"/>
    <path fill="none" stroke="#0000ff" d="M 114.17969 104.33203 L 99.734375 85.16406"/>
    <path fill="none" stroke="#0000ff" d="M 99.734375 85.16406 L 122.6875 92.179695"/>
    <path fill="none" stroke="#0000ff" d="M 122.6875 92.179695 L 99.9961 99.99219"/>
    <path fill="none" stroke="#0000ff" d="M 99.9961 99.99219 L 120.070305 77.69922"/>
    <path fill="none" stroke="#0000ff" d="M 120.070305 77.69922 L 116.93359 107.53516"/>
    <path fill="none" stroke="#0000ff" d="M 116.93359 107.53516 L 101.9336 81.55469"/>
    <path fill="none" stroke="#0000ff" d="M 101.9336 81.55469 L 129.33984 93.757805"/>
    <path fill="none" stroke="#0000ff" d="M 129.33984 93.757805 L 99.9961 99.9961"/>
    <path fill="none" stroke="#0000ff" d="M 99.9961 99.9961 L 127.164055 76.37891"/>
    <path fill="none" stroke="#0000ff" d="M 127.164055 76.37891 L 119.06641 111.45703"/>
    <path fill="none" stroke="#0000ff" d="M 119.06641 111.45703 L 105 78.32031"/>
    <path fill="none" stroke="#0000ff" d="M 105 78.32031 L 135.85938 96.86328"/>
    <path fill="none" stroke="#0000ff" d="M 135.85938 96.86328 L 99.9961 100"/>
    <path fill="none" stroke="#0000ff" d="M 99.9961 100 L 134.8164 76.515625"/>
    <path fill="none" stroke="#0000ff" d="M 134.8164 76.515625 L 120.45312 115.984375"/>
    <path fill="none" stroke="#0000ff" d="M 120.45312 115.984375 L 108.875 75.61328"/>
    <path fill="none" stroke="#0000ff" d="M 108.875 75.61328 L 141.97266 101.47266"/>
    <path fill="none" stroke="#0000ff" d="M 141.97266 101.47266 L 100 100.00781"/>
    <path fill="none" stroke="#0000ff" d="M 100 100.00781 L 142.76953 78.21484"/>
    <path fill="none" stroke="#0000ff" d="M 142.76953 78.21484 L 120.976555 120.984375"/>
    <path fill="none" stroke="#0000ff" d="M 120.976555 120.984375 L 113.46876 73.57422"/>
    <path fill="none" stroke="#0000ff" d="M 113.46876 73.57422 L 147.41016 107.515625"/>
    <path fill="none" stroke="#0000ff" d="M 147.41016 107.515625 L 100 100.00781"/>
    <path fill="none" stroke="#0000ff" d="M 100 100.00781 L 150.74219 81.53906"/>
    <path fill="none" stroke="#0000ff" d="M 150.74219 81.53906 L 120.546875 126.3086"/>
    <path fill="none" stroke="#0000ff" d="M 120.546875 126.3086 L 118.66406 72.33984"/>
    <path fill="none" stroke="#0000ff" d="M 118.66406 72.33984 L 151.91016 114.89063"/>
    <path fill="none" stroke="#0000ff" d="M 151.91016 114.89063 L 100.0039 100.00781"/>
    <path fill="none" stroke="#0000ff" d="M 100.0039 100.00781 L 158.46484 86.51172"/>
    <path fill="none" stroke="#0000ff" d="M 158.46484 86.51172 L 119.10156 131.79297"/>
    <path fill="none" stroke="#0000ff" d="M 119.10156 131.79297 L 124.33203 72.01953"/>
    <path fill="none" stroke="#0000ff" d="M 124.33203 72.01953 L 155.23438 123.44922"/>
    <path fill="none" stroke="#0000ff" d="M 155.23438 123.44922 L 100.0039 100.0039"/>
    <path fill="none" stroke="#0000ff" d="M 100.0039 100.0039 L 165.64063 93.10547"/>
    <path fill="none" stroke="#0000ff" d="M 165.64063 93.10547 L 116.59374 137.26953"/>
    <path fill="none" stroke="#0000ff" d="M 116.59374 137.26953 L 130.3164 72.71094"/>
    <path fill="none" stroke="#0000ff" d="M 130.3164 72.71094 L 157.16016 133.0039"/>
    <path fill="none" stroke="#0000ff" d="M 157.16016 133.0039 L 100.0039 100.0039"/>
    <path fill="none" stroke="#0000ff" d="M 100.0039 100.0039 L 171.99219 101.26172"/>
    <path fill="none" stroke="#0000ff" d="M 171.99219 101.26172 L 113.01172 142.5586"/>
    <path fill="none" stroke="#0000ff" d="M 113.01172 142.5586 L 136.45313 74.48047"/>
    <path fill="none" stroke="#0000ff" d="M 136.45313 74.48047 L 157.5039 143.33594"/>
    <path fill="none" stroke="#0000ff" d="M 157.5039 143.33594 L 100 100.0039"/>
    <path fill="none" stroke="#0000ff" d="M 100 100.0039 L 177.24219 110.859375"/>
    <path fill="none" stroke="#0000ff" d="M 177.24219 110.859375 L 108.3711 147.47656"/>
    <path fill="none" stroke="#0000ff" d="M 108.3711 147.47656 L 142.5625 77.37109"/>
    <path fill="none" stroke="#0000ff" d="M 142.5625 77.37109 L 156.10547 154.1875"/>
    <path fill="none" stroke="#0000ff" d="M 156.10547 154.1875 L 99.9961 100.0039"/>
    <path fill="none" stroke="#0000ff" d="M 99.9961 100.0039 L 181.13283 121.74218"/>
    <path fill="none" stroke="#0000ff" d="M 181.13283 121.74218 L 102.71094 151.84766"/>
    <path fill="none" stroke="#0000ff" d="M 102.71094 151.84766 L 148.46094 81.39844"/>
    <path fill="none" stroke="#0000ff" d="M 148.46094 81.39844 L 152.85938 165.28516"/>
    <path fill="none" stroke="#0000ff" d="M 152.85938 165.28516 L 99.9961 100.0039"/>
    <path fill="none" stroke="#0000ff" d="M 99.9961 100.0039 L 183.4414 133.71875"/>
    <path fill="none" stroke="#0000ff" d="M 183.4414 133.71875 L 96.11329 155.49219"/>
    <path fill="none" stroke="#0000ff" d="M 96.11329 155.49219 L 153.96484 86.546875"/>
    <path fill="none" stroke="#0000ff" d="M 153.96484 86.546875 L 147.6875 176.32813"/>
    <path fill="none" stroke="#0000ff" d="M 147.6875 176.32813 L 99.9961 100.0039"/>
    <path fill="none" stroke="#0000ff" d="M 99.9961 100.0039 L 183.96094 146.54688"/>
    <path fill="none" stroke="#0000ff" d="M 183.96094 146.54688 L 88.67578 158.2461"/>
    <path fill="none" stroke="#0000ff" d="M 88.67578 158.2461 L 158.88672 92.77344"/>
    <path fill="none" stroke="#0000ff" d="M 158.88672 92.77344 L 140.57031 187.00781"/>
    <path fill="none" stroke="#0000ff" d="M 140.57031 187.00781 L 100 100.0039"/>
    <path fill="none" stroke="#0000ff" d="M 100 100.0039 L 182.51952 159.95703"/>
    <path fill="none" stroke="#0000ff" d="M 182.51952 159.95703 L 80.51953 159.95703"/>
    <path fill="none" stroke="#0000ff" d="M 80.51953 159.95703 L 163.03906 100.0039"/>
    <path fill="none" stroke="#0000ff" d="M 163.03906 100.0039 L 131.51953 197.01172"/>
    <path fill="none" stroke="#0000ff" d="M 131.51953 197.01172 L 100 100.0039"/>
    <path fill="none" stroke="#0000ff" d="M 100 100.0039 L 178.98828 173.66016"/>
    <path fill="none" stroke="#0000ff" d="M 178.98828 173.66016 L 71.79297 160.5"/>
    <path fill="none" stroke="#0000ff" d="M 71.79297 160.5 L 166.25 108.140625"/>
    <path fill="none" stroke="#0000ff" d="M 166.25 108.140625 L 120.60547 206.02344"/>
    <path fill="none" stroke="#0000ff" d="M 120.60547 206.02344 L 100 100.00781"/>
    <path fill="none" stroke="#0000ff" d="M 100 100.00781 L 173.27734 187.33595"/>
    <path fill="none" stroke="#0000ff" d="M 173.27734 187.33595 L 62.664063 159.75781"/>
    <path fill="none" stroke="#0000ff" d="M 62.664063 159.75781 L 168.36328 117.05078"/>
    <path fill="none" stroke="#0000ff" d="M 168.36328 117.05078 L 107.953125 213.73047"/>
    <path fill="none" stroke="#0000ff" d="M 107.953125 213.73047 L 100 100.00781"/>
    <path fill="none" stroke="#0000ff" d="M 100 100.00781 L 165.35547 200.64844"/>
    <path fill="none" stroke="#0000ff" d="M 165.35547 200.64844 L 53.324215 157.64453"/>
    <path fill="none" stroke="#0000ff" d="M 53.324215 157.64453 L 169.23438 126.58594"/>
    <path fill="none" stroke="#0000ff" d="M 169.23438 126.58594 L 93.71875 219.84375"/>
    <path fill="none" stroke="#0000ff" d="M 93.71875 219.84375 L 99.9961 100.00781"/>
    <path fill="none" stroke="#0000ff" d="M 99.9961 100.00781 L 155.23047 213.25781"/>
    <path fill="none" stroke="#0000ff" d="M 155.23047 213.25781 L 43.98047 154.10156"/>
    <path fill="none" stroke="#0000ff" d="M 43.98047 154.10156 L 168.7539 136.5664"/>
    <path fill="none" stroke="#0000ff" d="M 168.7539 136.5664 L 78.11719 224.09375"/>
    <path fill="none" stroke="#0000ff" d="M 78.11719 224.09375 L 99.9961 100.00781"/>
    <path fill="none" stroke="#0000ff" d="M 99.9961 100.00781 L 142.96875 224.81642"/>
    <path fill="none" stroke="#0000ff" d="M 142.96875 224.81642 L 34.839844 149.10547"/>
    <path fill="none" stroke="#0000ff" d="M 34.839844 149.10547 L 166.82031 146.80078"/>
    <path fill="none" stroke="#0000ff" d="M 166.82031 146.80078 L 61.398438 226.23828"/>
    <path fill="none" stroke="#0000ff" d="M 61.398438 226.23828 L 99.99219 100.00781"/>
    <path fill="none" stroke="#0000ff" d="M 99.99219 100.00781 L 128.6836 234.99219"/>
    <path fill="none" stroke="#0000ff" d="M 128.6836 234.99219 L 26.128906 142.65234"/>
    <path fill="none" stroke="#0000ff" d="M 26.128906 142.65234 L 163.3711 157.07813"/>
    <path fill="none" stroke="#0000ff" d="M 163.3711 157.07813 L 43.859375 226.07813"/>
    <path fill="none" stroke="#0000ff" d="M 43.859375 226.07813 L 99.98829 100.00781"/>
    <path fill="none" stroke="#0000ff" d="M 99.98829 100.00781 L 112.53906 243.46094"/>
    <path fill="none" stroke="#0000ff" d="M 112.53906 243.46094 L 18.066406 134.78516"/>
    <path fill="none" stroke="#0000ff" d="M 18.066406 134.78516 L 158.375 167.17578"/>
    <path fill="none" stroke="#0000ff" d="M 158.375 167.17578 L 25.824217 223.4414"/>
    <path fill="none" stroke="#0000ff" d="M 25.824217 223.4414 L 99.98829 100.00781"/>
    <path fill="none" stroke="#0000ff" d="M 99.98829 100.00781 L 94.75391 249.91797"/>
    <path fill="none" stroke="#0000ff" d="M 94.75391 249.91797 L 10.875 125.5625"/>
    <path fill="none" stroke="#0000ff" d="M 10.875 125.5625 L 151.82813 176.86327"/>
    <path fill="none" stroke="#0000ff" d="M 151.82813 176.86327 L 7.6406255 218.21094"/>
    <path fill="none" stroke="#0000ff" d="M 7.6406255 218.21094 L 99.98829 100.00781"/>
    <path fill="none" stroke="#0000ff" d="M 99.98829 100.00781 L 75.58203 254.08594"/>
    <path fill="none" stroke="#0000ff" d="M 75.58203 254.08594 L 4.7617188 115.08985"/>
    <path fill="none" stroke="#0000ff" d="M 4.7617188 115.08985 L 143.75781 185.91406"/>
    <path fill="none" stroke="#0000ff" d="M 143.75781 185.91406 L -10.3203125 210.32033"/>
    <path fill="none" stroke="#0000ff" d="M -10.3203125 210.32033 L 99.98829 100.01171"/>
    <path fill="none" stroke="#0000ff" d="M 99.98829 100.01171 L 55.335938 255.73438"/>
    <path fill="none" stroke="#0000ff" d="M 55.335938 255.73438 L -0.0703125 103.50391"/>
    <path fill="none" stroke="#0000ff" d="M -0.0703125 103.50391 L 134.23438 194.09375"/>
    <path fill="none" stroke="#0000ff" d="M 134.23438 194.09375 L -27.667969 199.7461"/>
    <path fill="none" stroke="#0000ff" d="M -27.667969 199.7461 L 99.99219 100.01171"/>
    <path fill="none" stroke="#0000ff" d="M 99.99219 100.01171 L 34.351563 254.65625"/>
    <path fill="none" stroke="#0000ff" d="M 34.351563 254.65625 L -3.4414065 90.96094"/>
    <path fill="none" stroke="#0000ff" d="M -3.4414065 90.96094 L 123.35156 201.17969"/>
    <path fill="none" stroke="#0000ff" d="M 123.35156 201.17969 L -44.007813 186.53906"/>
    <path fill="none" stroke="#0000ff" d="M -44.007813 186.53906 L 99.9961 100.01171"/>
    <path fill="none" stroke="#0000ff" d="M 99.9961 100.01171 L 12.996094 250.69922"/>
    <path fill="none" stroke="#0000ff" d="M 12.996094 250.69922 L -5.1914063 77.65234"/>
    <path fill="none" stroke="#0000ff" d="M -5.1914063 77.65234 L 111.23827 206.95703"/>
    <path fill="none" stroke="#0000ff" d="M 111.23827 206.95703 L -58.960938 170.78125"/>
    <path fill="none" stroke="#0000ff" d="M -58.960938 170.78125 L 99.9961 100.00781"/>
    <path fill="none" stroke="#0000ff" d="M 99.9961 100.00781 L -8.328125 243.76561"/>
    <path fill="none" stroke="#0000ff" d="M -8.328125 243.76561 L -5.1875 63.79297"/>
    <path fill="none" stroke="#0000ff" d="M -5.1875 63.79297 L 98.0586 211.23828"/>
    <path fill="none" stroke="#0000ff" d="M 98.0586 211.23828 L -72.13672 152.63672"/>
    <path fill="none" stroke="#0000ff" d="M -72.13672 152.63672 L 99.9961 100.00781"/>
    <path fill="none" stroke="#0000ff" d="M 99.9961 100.00781 L -29.210936 233.8047"/>
    <path fill="none" stroke="#0000ff" d="M -29.210936 233.8047 L -3.324219 49.61328"/>
    <path fill="none" stroke="#0000ff" d="M -3.324219 49.61328 L 83.99609 213.84375"/>
    <path fill="none" stroke="#0000ff" d="M 83.99609 213.84375 L -83.17969 132.3086"/>
    <path fill="none" stroke="#0000ff" d="M -83.17969 132.3086 L 99.99219 100.00781"/>
    <path fill="none" stroke="#0000ff" d="M 99.99219 100.00781 L -49.21875 220.83594"/>
    <path fill="none" stroke="#0000ff" d="M -49.21875 220.83594 L 0.47656247 35.378906"/>
    <path fill="none" stroke="#0000ff" d="M 0.47656247 35.378906 L 69.28125 214.625"/>
    <path fill="none" stroke="#0000ff" d="M 69.28125 214.625 L -91.74219 110.05469"/>
    <path fill="none" stroke="#0000ff" d="M -91.74219 110.05469 L 99.9961 100.00781"/>
    <path fill="none" stroke="#0000ff" d="M 99.9961 100.00781 L -67.91797 204.9336"/>
    <path fill="none" stroke="#0000ff" d="M -67.91797 204.9336 L 6.2539067 21.351563"/>
    <path fill="none" stroke="#0000ff" d="M 6.2539067 21.351563 L 54.156254 213.46875"/>
    <path fill="none" stroke="#0000ff" d="M 54.156254 213.46875 L -97.51953 86.19531"/>
    <path fill="none" stroke="#0000ff" d="M -97.51953 86.19531 L 100 100.00781"/>
    <path fill="none" stroke="#0000ff" d="M 100 100.00781 L -84.88672 186.22266"/>
    <path fill="none" stroke="#0000ff" d="M -84.88672 186.22266 L 14.011719 7.8007813"/>
    <path fill="none" stroke="#0000ff" d="M 14.011719 7.8007813 L 38.875 210.28125"/>
    <path fill="none" stroke="#0000ff" d="M 38.875 210.28125 L -100.253914 61.085938"/>
    <path fill="none" stroke="#0000ff" d="M -100.253914 61.085938 L 100 100.01171"/>
    <path fill="none" stroke="#0000ff" d="M 100 100.01171 L -99.72266 164.90625"/>
    <path fill="none" stroke="#0000ff" d="M -99.72266 164.90625 L 23.710938 -4.9882813"/>
    <path fill="none" stroke="#0000ff" d="M 23.710938 -4.9882813 L 23.714844 205.01172"/>
    <path fill="none" stroke="#0000ff" d="M 23.714844 205.01172 L -99.72266 35.121094"/>
    <path fill="none" stroke="#0000ff" d="M -99.72266 35.121094 L 100 100.01171"/>
    <path fill="none" stroke="#0000ff" d="M 100 100.01171 L -112.03125 141.22266"/>
    <path fill="none" stroke="#0000ff" d="M -112.03125 141.22266 L 35.28125 -16.75"/>
    <path fill="none" stroke="#0000ff" d="M 35.28125 -16.75 L 8.9609375 197.64063"/>
    <path fill="none" stroke="#0000ff" d="M 8.9609375 197.64063 L -95.76172 8.722656"/>
    <path fill="none" stroke="#0000ff" d="M -95.76172 8.722656 L 100.0039 100.0039"/>
    <path fill="none" stroke="#0000ff" d="M 100.0039 100.0039 L -121.45703 115.48827"/>
    <path fill="none" stroke="#0000ff" d="M -121.45703 115.48827 L 48.605473 -27.210936"/>
    <path fill="none" stroke="#0000ff" d="M 48.605473 -27.210936 L -5.1015625 188.19531"/>
    <path fill="none" stroke="#0000ff" d="M -5.1015625 188.19531 L -88.26171 -17.640625"/>
    <path fill="none" stroke="#0000ff" d="M -88.26171 -17.640625 L 100.0039 100.0039"/>
    <path fill="none" stroke="#0000ff" d="M 100.0039 100.0039 L -127.68359 88.070305"/>
    <path fill="none" stroke="#0000ff" d="M -127.68359 88.070305 L 63.53125 -36.109375"/>
    <path fill="none" stroke="#0000ff" d="M 63.53125 -36.109375 L -18.175781 176.7461"/>
    <path fill="none" stroke="#0000ff" d="M -18.175781 176.7461 L -77.1875 -43.484375"/>
    <path fill="none" stroke="#0000ff" d="M -77.1875 -43.484375 L 100 100"/>
    <path fill="none" stroke="#0000ff" d="M 100 100 L -130.44531 59.367188"/>
    <path fill="none" stroke="#0000ff" d="M -130.44531 59.367188 L 79.87109 -43.214844"/>
    <path fill="none" stroke="#0000ff" d="M 79.87109 -43.214844 L -29.984373 163.39453"/>
    <path fill="none" stroke="#0000ff" d="M -29.984373 163.39453 L -62.550777 -68.328125"/>
    <path fill="none" stroke="#0000ff" d="M -62.550777 -68.328125 L 100 99.9961"/>
    <path fill="none" stroke="#0000ff" d="M 100 99.9961 L -129.51563 29.832031"/>
    <path fill="none" stroke="#0000ff" d="M -129.51563 29.832031 L 97.40625 -48.308594"/>
    <path fill="none" stroke="#0000ff" d="M 97.40625 -48.308594 L -40.25 148.28906"/>
    <path fill="none" stroke="#0000ff" d="M -40.25 148.28906 L -44.441406 -91.67578"/>
    <path fill="none" stroke="#0000ff" d="M -44.441406 -91.67578 L 99.99219 100"/>
    <path fill="none" stroke="#0000ff" d="M 99.99219 100 L -124.73828 -0.05859375"/>
    <path fill="none" stroke="#0000ff" d="M -124.73828 -0.05859375 L 115.88671 -51.210938"/>
    <path fill="none" stroke="#0000ff" d="M 115.88671 -51.210938 L -48.722656 131.60156"/>
    <path fill="none" stroke="#0000ff" d="M -48.722656 131.60156 L -23.011719 -113.05078"/>
    <path fill="none" stroke="#0000ff" d="M -23.011719 -113.05078 L 99.984375 99.99219"/>
    <path fill="none" stroke="#0000ff" d="M 99.984375 99.99219 L -116.01953 -29.796875"/>
    <path fill="none" stroke="#0000ff" d="M -116.01953 -29.796875 L 135.01953 -51.765625"/>
    <path fill="none" stroke="#0000ff" d="M 135.01953 -51.765625 L -55.16797 113.558586"/>
    <path fill="none" stroke="#0000ff" d="M -55.16797 113.558586 L 1.515625 -131.98438"/>
    <path fill="none" stroke="#0000ff" d="M 1.515625 -131.98438 L 99.97656 99.984375"/>
    <path fill="none" stroke="#0000ff" d="M 99.97656 99.984375 L -103.33203 -58.85547"/>
    <path fill="none" stroke="#0000ff" d="M -103.33203 -58.85547 L 154.51172 -49.859375"/>
    <path fill="none" stroke="#0000ff" d="M 154.51172 -49.859375 L -59.37891 94.41406"/>
    <path fill="none" stroke="#0000ff" d="M -59.37891 94.41406 L 28.855467 -148.02734"/>
    <path fill="none" stroke="#0000ff" d="M 28.855467 -148.02734 L 99.96875 99.97656"/>
    <path fill="none" stroke="#0000ff" d="M 99.96875 99.97656 L -86.70704 -86.69923"/>
    <path fill="none" stroke="#0000ff" d="M -86.70704 -86.69923 L 174.04297 -45.394527"/>
    <path fill="none" stroke="#0000ff" d="M 174.04297 -45.394527 L -61.183594 74.46094"/>
    <path fill="none" stroke="#0000ff" d="M -61.183594 74.46094 L 58.675785 -160.76172"/>
    <path fill="none" stroke="#0000ff" d="M 58.675785 -160.76172 L 99.97656 99.98829"/>
    <path fill="none" stroke="#0000ff" d="M 99.97656 99.98829 L -66.25391 -112.77344"/>
    <path fill="none" stroke="#0000ff" d="M -66.25391 -112.77344 L 193.28516 -38.347656"/>
    <path fill="none" stroke="#0000ff" d="M 193.28516 -38.347656 L -60.429688 54"/>
    <path fill="none" stroke="#0000ff" d="M -60.429688 54 L 90.55859 -169.83594"/>
    <path fill="none" stroke="#0000ff" d="M 90.55859 -169.83594 L 99.984375 100"/>
    <path fill="none" stroke="#0000ff" d="M 99.984375 100 L -42.171875 -136.57422"/>
    <path fill="none" stroke="#0000ff" d="M -42.171875 -136.57422 L 211.88672 -28.730469"/>
    <path fill="none" stroke="#0000ff" d="M 211.88672 -28.730469 L -57.039063 33.359375"/>
    <path fill="none" stroke="#0000ff" d="M -57.039063 33.359375 L 124.03516 -174.9375"/>
    <path fill="none" stroke="#0000ff" d="M 124.03516 -174.9375 L 99.984375 100.01171"/>
    <path fill="none" stroke="#0000ff" d="M 99.984375 100.01171 L -14.722656 -157.60547"/>
    <path fill="none" stroke="#0000ff" d="M -14.722656 -157.60547 L 229.4961 -16.605469"/>
    <path fill="none" stroke="#0000ff" d="M 229.4961 -16.605469 L -50.95703 12.878907"/>
    <path fill="none" stroke="#0000ff" d="M -50.95703 12.878907 L 158.60938 -175.8125"/>
    <path fill="none" stroke="#0000ff" d="M 158.60938 -175.8125 L 99.984375 100.02734"/>
    <path fill="none" stroke="#0000ff" d="M 99.984375 100.02734 L 15.7734375 -175.38673"/>
    <path fill="none" stroke="#0000ff" d="M 15.7734375 -175.38673 L 245.78127 -2.0625"/>
    <path fill="none" stroke="#0000ff" d="M 245.78127 -2.0625 L -42.17578 -7.0820313"/>
    <path fill="none" stroke="#0000ff" d="M -42.17578 -7.0820313 L 193.74219 -172.27344"/>
    <path fill="none" stroke="#0000ff" d="M 193.74219 -172.27344 L 99.984375 100.03906"/>
    <path fill="none" stroke="#0000ff" d="M 99.984375 100.03906 L 48.937496 -189.4961"/>
    <path fill="none" stroke="#0000ff" d="M 48.937496 -189.4961 L 260.42578 14.730469"/>
    <path fill="none" stroke="#0000ff" d="M 260.42578 14.730469 L -30.710938 -26.195313"/>
    <path fill="none" stroke="#0000ff" d="M -30.710938 -26.195313 L 228.875 -164.22266"/>
    <path fill="none" stroke="#0000ff" d="M 228.875 -164.22266 L 100.0039 100.02734"/>
    <path fill="none" stroke="#0000ff" d="M 100.0039 100.02734 L 84.30859 -199.5625"/>
    <path fill="none" stroke="#0000ff" d="M 84.30859 -199.5625 L 273.10938 33.578125"/>
    <path fill="none" stroke="#0000ff" d="M 273.10938 33.578125 L -16.667969 -44.07422"/>
    <path fill="none" stroke="#0000ff" d="M -16.667969 -44.07422 L 263.40625 -151.58594"/>
    <path fill="none" stroke="#0000ff" d="M 263.40625 -151.58594 L 100.00781 100.01171"/>
    <path fill="none" stroke="#0000ff" d="M 100.00781 100.01171 L 121.35547 -205.24219"/>
    <path fill="none" stroke="#0000ff" d="M 121.35547 -205.24219 L 283.51563 54.257813"/>
    <path fill="none" stroke="#0000ff" d="M 283.51563 54.257813 L -0.203125 -60.375"/>
    <path fill="none" stroke="#0000ff" d="M -0.203125 -60.375 L 296.70703 -134.40625"/>
    <path fill="none" stroke="#0000ff" d="M 296.70703 -134.40625 L 100.01171 100"/>
    <path fill="none" stroke="#0000ff" d="M 100.01171 100 L 159.54688 -206.26563"/>
    <path fill="none" stroke="#0000ff" d="M 159.54688 -206.26563 L 291.41016 76.5"/>
    <path fill="none" stroke="#0000ff" d="M 291.41016 76.5 L 18.53125 -74.76172"/>
    <path fill="none" stroke="#0000ff" d="M 18.53125 -74.76172 L 328.20313 -112.79297"/>
    <path fill="none" stroke="#0000ff" d="M 328.20313 -112.79297 L 100.01953 99.98829"/>
    <path fill="none" stroke="#0000ff" d="M 100.01953 99.98829 L 198.28514 -202.44922"/>
    <path fill="none" stroke="#0000ff" d="M 198.28514 -202.44922 L 296.5625 99.984375"/>
    <path fill="none" stroke="#0000ff" d="M 296.5625 99.984375 L 39.296875 -86.92969"/>
    <path fill="none" stroke="#0000ff" d="M 39.296875 -86.92969 L 357.29688 -86.9375"/>
    <path fill="none" stroke="#0000ff" d="M 357.29688 -86.9375 L 100.02734 99.97656"/>
    <path fill="none" stroke="#0000ff" d="M 100.02734 99.97656 L 236.95313 -193.66797"/>
    <path fill="none" stroke="#0000ff" d="M 236.95313 -193.66797 L 298.76953 124.378914"/>
    <path fill="none" stroke="#0000ff" d="M 298.76953 124.378914 L 61.808594 -96.58593"/>
    <path fill="none" stroke="#0000ff" d="M 61.808594 -96.58593 L 383.39453 -57.11328"/>
    <path fill="none" stroke="#0000ff" d="M 383.39453 -57.11328 L 100.01953 99.96484"/>
    <path fill="none" stroke="#0000ff" d="M 100.01953 99.96484 L 274.89063 -179.89453"/>
    <path fill="none" stroke="#0000ff" d="M 274.89063 -179.89453 L 297.90625 149.30078"/>
    <path fill="none" stroke="#0000ff" d="M 297.90625 149.30078 L 85.78516 -103.49219"/>
    <path fill="none" stroke="#0000ff" d="M 85.78516 -103.49219 L 405.9805 -23.652344"/>
    <path fill="none" stroke="#0000ff" d="M 405.9805 -23.652344 L 100.01171 99.97266"/>
    <path fill="none" stroke="#0000ff" d="M 100.01171 99.97266 L 311.45703 -161.15234"/>
    <path fill="none" stroke="#0000ff" d="M 311.45703 -161.15234 L 293.8672 174.38673"/>
    <path fill="none" stroke="#0000ff" d="M 293.8672 174.38673 L 110.86328 -107.40234"/>
    <path fill="none" stroke="#0000ff" d="M 110.86328 -107.40234 L 424.543 13.015625"/>
    <path fill="none" stroke="#0000ff" d="M 424.543 13.015625 L 99.99219 99.984375"/>
    <path fill="none" stroke="#0000ff" d="M 99.99219 99.984375 L 346 -137.59375"/>
    <path fill="none" stroke="#0000ff" d="M 346 -137.59375 L 286.60938 199.21095"/>
    <path fill="none" stroke="#0000ff" d="M 286.60938 199.21095 L 136.67969 -108.171875"/>
    <path fill="none" stroke="#0000ff" d="M 136.67969 -108.171875 L 438.64844 52.390625"/>
    <path fill="none" stroke="#0000ff" d="M 438.64844 52.390625 L 99.97656 99.9961"/>
    <path fill="none" stroke="#0000ff" d="M 99.97656 99.9961 L 377.89453 -109.44531"/>
    <path fill="none" stroke="#0000ff" d="M 377.89453 -109.44531 L 276.14844 223.34766"/>
    <path fill="none" stroke="#0000ff" d="M 276.14844 223.34766 L 162.83984 -105.6914"/>
    <path fill="none" stroke="#0000ff" d="M 162.83984 -105.6914 L 447.90625 93.91406"/>
    <path fill="none" stroke="#0000ff" d="M 447.90625 93.91406 L 99.96094 99.9961"/>
    <path fill="none" stroke="#0000ff" d="M 99.96094 99.9961 L 406.53906 -76.99609"/>
    <path fill="none" stroke="#0000ff" d="M 406.53906 -76.99609 L 262.5547 246.39844"/>
    <path fill="none" stroke="#0000ff" d="M 262.5547 246.39844 L 188.94142 -99.86329"/>
    <path fill="none" stroke="#0000ff" d="M 188.94142 -99.86329 L 452.01563 137.00781"/>
    <path fill="none" stroke="#0000ff" d="M 452.01563 137.00781 L 99.953125 100.015625"/>
    <path fill="none" stroke="#0000ff" d="M 99.953125 100.015625 L 431.33597 -40.640625"/>
    <path fill="none" stroke="#0000ff" d="M 431.33597 -40.640625 L 245.92578 267.9414"/>
    <path fill="none" stroke="#0000ff" d="M 245.92578 267.9414 L 214.55469 -90.6875"/>
    <path fill="none" stroke="#0000ff" d="M 214.55469 -90.6875 L 450.7383 181.0039"/>
    <path fill="none" stroke="#0000ff" d="M 450.7383 181.0039 L 99.96484 100.015625"/>
    <path fill="none" stroke="#0000ff" d="M 99.96484 100.015625 L 451.78903 -0.8632813"/>
    <path fill="none" stroke="#0000ff" d="M 451.78903 -0.8632813 L 226.46094 287.5547"/>
    <path fill="none" stroke="#0000ff" d="M 226.46094 287.5547 L 239.23828 -78.22266"/>
    <path fill="none" stroke="#0000ff" d="M 239.23828 -78.22266 L 443.90625 225.20313"/>
    <path fill="none" stroke="#0000ff" d="M 443.90625 225.20313 L 99.98047 100.01953"/>
    <path fill="none" stroke="#0000ff" d="M 99.98047 100.01953 L 467.40234 41.828125"/>
    <path fill="none" stroke="#0000ff" d="M 467.40234 41.828125 L 204.36328 304.8789"/>
    <path fill="none" stroke="#0000ff" d="M 204.36328 304.8789 L 262.5586 -62.539063"/>
    <path fill="none" stroke="#0000ff" d="M 262.5586 -62.539063 L 431.44922 268.91016"/>
    <path fill="none" stroke="#0000ff" d="M 431.44922 268.91016 L 99.9961 100.02344"/>
    <path fill="none" stroke="#0000ff" d="M 99.9961 100.02344 L 477.76563 86.83204"/>
    <path fill="none" stroke="#0000ff" d="M 477.76563 86.83204 L 179.90625 319.5625"/>
    <path fill="none" stroke="#0000ff" d="M 179.90625 319.5625 L 284.09766 -43.79297"/>
    <path fill="none" stroke="#0000ff" d="M 284.09766 -43.79297 L 413.39066 311.40625"/>
    <path fill="none" stroke="#0000ff" d="M 413.39066 311.40625 L 100.015625 100.03125"/>
    <path fill="none" stroke="#0000ff" d="M 100.015625 100.03125 L 482.5547 133.4961"/>
    <path fill="none" stroke="#0000ff" d="M 482.5547 133.4961 L 153.41016 331.28125"/>
    <path fill="none" stroke="#0000ff" d="M 153.41016 331.28125 L 303.44922 -22.195313"/>
    <path fill="none" stroke="#0000ff" d="M 303.44922 -22.195313 L 389.84375 351.96094"/>
    <path fill="none" stroke="#0000ff" d="M 389.84375 351.96094 L 100.03516 100.03516"/>
    <path fill="none" stroke="#0000ff" d="M 100.03516 100.03516 L 481.51566 181.11719"/>
    <path fill="none" stroke="#0000ff" d="M 481.51566 181.11719 L 125.23047 339.73828"/>
    <path fill="none" stroke="#0000ff" d="M 125.23047 339.73828 L 320.22656 1.984375"/>
    <path fill="none" stroke="#0000ff" d="M 320.22656 1.984375 L 360.98438 389.84766"/>
    <path fill="none" stroke="#0000ff" d="M 360.98438 389.84766 L 100.01953 100.02344"/>
    <path fill="none" stroke="#0000ff" d="M 100.01953 100.02344 L 474.44922 228.94142"/>
    <path fill="none" stroke="#0000ff" d="M 474.44922 228.94142 L 95.75 344.71484"/>
    <path fill="none" stroke="#0000ff" d="M 95.75 344.71484 L 334.0625 28.449219"/>
    <path fill="none" stroke="#0000ff" d="M 334.0625 28.449219 L 327.14453 424.39063"/>
    <path fill="none" stroke="#0000ff" d="M 327.14453 424.39063 L 100.0039 100.01171"/>
    <path fill="none" stroke="#0000ff" d="M 100.0039 100.01171 L 461.32422 276.22656"/>
    <path fill="none" stroke="#0000ff" d="M 461.32422 276.22656 L 65.42969 346.03128"/>
    <path fill="none" stroke="#0000ff" d="M 65.42969 346.03128 L 344.67578 56.851563"/>
    <path fill="none" stroke="#0000ff" d="M 344.67578 56.851563 L 288.72656 454.93753"/>
    <path fill="none" stroke="#0000ff" d="M 288.72656 454.93753 L 99.99219 99.9961"/>
    <path fill="none" stroke="#0000ff" d="M 99.99219 99.9961 L 442.17578 322.19922"/>
    <path fill="none" stroke="#0000ff" d="M 442.17578 322.19922 L 34.734375 343.55078"/>
    <path fill="none" stroke="#0000ff" d="M 34.734375 343.55078 L 351.80078 86.77734"/>
    <path fill="none" stroke="#0000ff" d="M 351.80078 86.77734 L 246.20313 480.875"/>
    <path fill="none" stroke="#0000ff" d="M 246.20313 480.875 L 99.98047 99.97656"/>
    <path fill="none" stroke="#0000ff" d="M 99.98047 99.97656 L 417.1172 366.09766"/>
    <path fill="none" stroke="#0000ff" d="M 417.1172 366.09766 L 4.125 337.22266"/>
    <path fill="none" stroke="#0000ff" d="M 4.125 337.22266 L 355.21094 117.82422"/>
    <path fill="none" stroke="#0000ff" d="M 355.21094 117.82422 L 200.12502 501.6797"/>
    <path fill="none" stroke="#0000ff" d="M 200.12502 501.6797 L 99.95703 99.98047"/>
    <path fill="none" stroke="#0000ff" d="M 99.95703 99.98047 L 386.39063 407.15234"/>
    <path fill="none" stroke="#0000ff" d="M 386.39063 407.15234 L -25.894531 327.01563"/>
    <path fill="none" stroke="#0000ff" d="M -25.894531 327.01563 L 354.75778 149.52344"/>
    <path fill="none" stroke="#0000ff" d="M 354.75778 149.52344 L 151.14063 516.8672"/>
    <path fill="none" stroke="#0000ff" d="M 151.14063 516.8672 L 99.96484 99.9961"/>
    <path fill="none" stroke="#0000ff" d="M 99.96484 99.9961 L 350.35547 444.64063"/>
    <path fill="none" stroke="#0000ff" d="M 350.35547 444.64063 L -54.796875 313.0078"/>
    <path fill="none" stroke="#0000ff" d="M -54.796875 313.0078 L 350.35547 181.37108"/>
    <path fill="none" stroke="#0000ff" d="M 350.35547 181.37108 L 99.96484 526.0156"/>
    <path fill="none" stroke="#0000ff" d="M 99.96484 526.0156 L 99.97266 100.015625"/>
    <path fill="none" stroke="#0000ff" d="M 99.97266 100.015625 L 309.41016 477.85156"/>
    <path fill="none" stroke="#0000ff" d="M 309.41016 477.85156 L -82.12109 295.28906"/>
    <path fill="none" stroke="#0000ff" d="M -82.12109 295.28906 L 341.9414 212.86328"/>
    <path fill="none" stroke="#0000ff" d="M 341.9414 212.86328 L 47.324215 528.8164"/>
    <path fill="none" stroke="#0000ff" d="M 47.324215 528.8164 L 99.97656 100.03516"/>
    <path fill="none" stroke="#0000ff" d="M 99.97656 100.03516 L 264.0547 506.14063"/>
    <path fill="none" stroke="#0000ff" d="M 264.0547 506.14063 L -107.39844 274.04688"/>
    <path fill="none" stroke="#0000ff" d="M -107.39844 274.04688 L 329.53516 243.4961"/>
    <path fill="none" stroke="#0000ff" d="M 329.53516 243.4961 L -5.984375 525.0469"/>
    <path fill="none" stroke="#0000ff" d="M -5.984375 525.0469 L 99.98047 100.05859"/>
    <path fill="none" stroke="#0000ff" d="M 99.98047 100.05859 L 214.89844 528.9297"/>
    <path fill="none" stroke="#0000ff" d="M 214.89844 528.9297 L -130.16406 249.52345"/>
    <path fill="none" stroke="#0000ff" d="M -130.16406 249.52345 L 313.22656 272.7578"/>
    <path fill="none" stroke="#0000ff" d="M 313.22656 272.7578 L -59.136715 514.58984"/>
    <path fill="none" stroke="#0000ff" d="M -59.136715 514.58984 L 99.97656 100.07812"/>
    <path fill="none" stroke="#0000ff" d="M 99.97656 100.07812 L 162.60938 545.6992"/>
    <path fill="none" stroke="#0000ff" d="M 162.60938 545.6992 L -149.98047 221.99219"/>
    <path fill="none" stroke="#0000ff" d="M -149.98047 221.99219 L 293.1836 300.1289"/>
    <path fill="none" stroke="#0000ff" d="M 293.1836 300.1289 L -111.27734 497.3867"/>
    <path fill="none" stroke="#0000ff" d="M -111.27734 497.3867 L 99.98047 100.05859"/>
    <path fill="none" stroke="#0000ff" d="M 99.98047 100.05859 L 107.94922 555.9883"/>
    <path fill="none" stroke="#0000ff" d="M 107.94922 555.9883 L -166.47266 191.8086"/>
    <path fill="none" stroke="#0000ff" d="M -166.47266 191.8086 L 269.60547 325.1211"/>
    <path fill="none" stroke="#0000ff" d="M 269.60547 325.1211 L -161.55469 473.57425"/>
    <path fill="none" stroke="#0000ff" d="M -161.55469 473.57425 L 99.99219 100.03516"/>
    <path fill="none" stroke="#0000ff" d="M 99.99219 100.03516 L 51.710934 559.5039"/>
    <path fill="none" stroke="#0000ff" d="M 51.710934 559.5039 L -179.28516 159.39844"/>
    <path fill="none" stroke="#0000ff" d="M -179.28516 159.39844 L 242.77733 347.30078"/>
    <path fill="none" stroke="#0000ff" d="M 242.77733 347.30078 L -209.12889 443.35156"/>
    <path fill="none" stroke="#0000ff" d="M -209.12889 443.35156 L 100.0039 100.01171"/>
    <path fill="none" stroke="#0000ff" d="M 100.0039 100.01171 L -5.2578125 556.01953"/>
    <path fill="none" stroke="#0000ff" d="M -5.2578125 556.01953 L -188.1211 125.22266"/>
    <path fill="none" stroke="#0000ff" d="M -188.1211 125.22266 L 213.03906 366.24997"/>
    <path fill="none" stroke="#0000ff" d="M 213.03906 366.24997 L -253.17967 407.03906"/>
    <path fill="none" stroke="#0000ff" d="M -253.17967 407.03906 L 100.015625 99.99219"/>
    <path fill="none" stroke="#0000ff" d="M 100.015625 99.99219 L -62.085938 545.41406"/>
    <path fill="none" stroke="#0000ff" d="M -62.085938 545.41406 L -192.7422 89.77734"/>
    <path fill="none" stroke="#0000ff" d="M -192.7422 89.77734 L 180.78516 381.58594"/>
    <path fill="none" stroke="#0000ff" d="M 180.78516 381.58594 L -292.92578 365.04688"/>
    <path fill="none" stroke="#0000ff" d="M -292.92578 365.04688 L 100.03125 99.97656"/>
    <path fill="none" stroke="#0000ff" d="M 100.03125 99.97656 L -117.890625 527.65625"/>
    <path fill="none" stroke="#0000ff" d="M -117.890625 527.65625 L -192.98438 53.566406"/>
    <path fill="none" stroke="#0000ff" d="M -192.98438 53.566406 L 146.42188 392.98438"/>
    <path fill="none" stroke="#0000ff" d="M 146.42188 392.98438 L -327.66797 317.89844"/>
    <path fill="none" stroke="#0000ff" d="M -327.66797 317.89844 L 100.01953 99.99219"/>
    <path fill="none" stroke="#0000ff" d="M 100.01953 99.99219 L -171.72656 502.91797"/>
    <path fill="none" stroke="#0000ff" d="M -171.72656 502.91797 L -188.69531 17.214844"/>
    <path fill="none" stroke="#0000ff" d="M -188.69531 17.214844 L 110.51172 400.1914"/>
    <path fill="none" stroke="#0000ff" d="M 110.51172 400.1914 L -356.65625 266.21094"/>
    <path fill="none" stroke="#0000ff" d="M -356.65625 266.21094 L 100.02734 99.96875"/>
    <path fill="none" stroke="#0000ff" d="M 100.02734 99.96875 L -222.75781 471.28516"/>
    <path fill="none" stroke="#0000ff" d="M -222.75781 471.28516 L -179.85938 -18.839844"/>
    <path fill="none" stroke="#0000ff" d="M -179.85938 -18.839844 L 73.5625 402.8711"/>
    <path fill="none" stroke="#0000ff" d="M 73.5625 402.8711 L -379.32816 210.64063"/>
    <path fill="none" stroke="#0000ff" d="M -379.32816 210.64063 L 100.06251 99.96875"/>
    <path fill="none" stroke="#0000ff" d="M 100.06251 99.96875 L -270.0039 433.21875"/>
    <path fill="none" stroke="#0000ff" d="M -270.0039 433.21875 L -166.47656 -53.902348"/>
    <path fill="none" stroke="#0000ff" d="M -166.47656 -53.902348 L 36.078125 401.04297"/>
    <path fill="none" stroke="#0000ff" d="M 36.078125 401.04297 L -395.1953 152.02734"/>
    <path fill="none" stroke="#0000ff" d="M -395.1953 152.02734 L 100.07422 99.945305"/>
    <path fill="none" stroke="#0000ff" d="M 100.07422 99.945305 L -312.77734 389.03125"/>
    <path fill="none" stroke="#0000ff" d="M -312.77734 389.03125 L -148.67969 -87.50781"/>
    <path fill="none" stroke="#0000ff" d="M -148.67969 -87.50781 L -1.2929688 394.46094"/>
    <path fill="none" stroke="#0000ff" d="M -1.2929688 394.46094 L -403.8164 91.16016"/>
    <path fill="none" stroke="#0000ff" d="M -403.8164 91.16016 L 100.10547 99.95703"/>
    <path fill="none" stroke="#0000ff" d="M 100.10547 99.95703 L -350.21094 339.3672"/>
    <path fill="none" stroke="#0000ff" d="M -350.21094 339.3672 L -126.66016 -119.02734"/>
    <path fill="none" stroke="#0000ff" d="M -126.66016 -119.02734 L -38.09375 383.22266"/>
    <path fill="none" stroke="#0000ff" d="M -38.09375 383.22266 L -404.94925 28.9375"/>
    <path fill="none" stroke="#0000ff" d="M -404.94925 28.9375 L 100.09375 99.8789"/>
    <path fill="none" stroke="#0000ff" d="M 100.09375 99.8789 L -381.6289 284.8047"/>
    <path fill="none" stroke="#0000ff" d="M -381.6289 284.8047 L -100.58984 -147.94531"/>
    <path fill="none" stroke="#0000ff" d="M -100.58984 -147.94531 L -73.609375 367.34766"/>
    <path fill="none" stroke="#0000ff" d="M -73.609375 367.34766 L -398.35547 -33.64453"/>
    <path fill="none" stroke="#0000ff" d="M -398.35547 -33.64453 L 100.06251 99.89844"/>
    <path fill="none" stroke="#0000ff" d="M 100.06251 99.89844 L -406.43753 226.16406"/>
    <path fill="none" stroke="#0000ff" d="M -406.43753 226.16406 L -70.92578 -173.73047"/>
    <path fill="none" stroke="#0000ff" d="M -70.92578 -173.73047 L -107.328125 347"/>
    <path fill="none" stroke="#0000ff" d="M -107.328125 347 L -383.94138 -95.68359"/>
    <path fill="none" stroke="#0000ff" d="M -383.94138 -95.68359 L 100.03906 99.8789"/>
    <path fill="none" stroke="#0000ff" d="M 100.03906 99.8789 L -424.02344 164.24219"/>
    <path fill="none" stroke="#0000ff" d="M -424.02344 164.24219 L -37.867188 -195.85158"/>
    <path fill="none" stroke="#0000ff" d="M -37.867188 -195.85158 L -138.63281 322.4453"/>
    <path fill="none" stroke="#0000ff" d="M -138.63281 322.4453 L -361.8047 -156.07031"/>
    <path fill="none" stroke="#0000ff" d="M -361.8047 -156.07031 L 100 99.89844"/>
    <path fill="none" stroke="#0000ff" d="M 100 99.89844 L -434 99.88671"/>
    <path fill="none" stroke="#0000ff" d="M -434 99.88671 L -2.0039063 -214.01952"/>
    <path fill="none" stroke="#0000ff" d="M -2.0039063 -214.01952 L -167 293.85156"/>
    <path fill="none" stroke="#0000ff" d="M -167 293.85156 L -332.01563 -214.01172"/>
    <path fill="none" stroke="#0000ff" d="M -332.01563 -214.01172 L 99.99219 99.8789"/>
    <path fill="none" stroke="#0000ff" d="M 99.99219 99.8789 L -435.98438 34.09375"/>
    <path fill="none" stroke="#0000ff" d="M -435.98438 34.09375 L 36.308594 -227.70702"/>
    <path fill="none" stroke="#0000ff" d="M 36.308594 -227.70702 L -191.91406 261.6953"/>
    <path fill="none" stroke="#0000ff" d="M -191.91406 261.6953 L -294.92188 -268.39063"/>
    <path fill="none" stroke="#0000ff" d="M -294.92188 -268.39063 L 100.02344 99.875"/>
    <path fill="none" stroke="#0000ff" d="M 100.02344 99.875 L -429.7578 -32.222656"/>
    <path fill="none" stroke="#0000ff" d="M -429.7578 -32.222656 L 76.49219 -236.73438"/>
    <path fill="none" stroke="#0000ff" d="M 76.49219 -236.73438 L -212.82031 226.3125"/>
    <path fill="none" stroke="#0000ff" d="M -212.82031 226.3125 L -250.91406 -318.35547"/>
    <path fill="none" stroke="#0000ff" d="M -250.91406 -318.35547 L 100.04297 99.91016"/>
    <path fill="none" stroke="#0000ff" d="M 100.04297 99.91016 L -415.30472 -97.87891"/>
    <path fill="none" stroke="#0000ff" d="M -415.30472 -97.87891 L 117.882805 -240.75783"/>
    <path fill="none" stroke="#0000ff" d="M 117.882805 -240.75783 L -229.50389 188.22264"/>
    <path fill="none" stroke="#0000ff" d="M -229.50389 188.22264 L -200.59375 -363.01956"/>
    <path fill="none" stroke="#0000ff" d="M -200.59375 -363.01956 L 100.070305 99.91016"/>
    <path fill="none" stroke="#0000ff" d="M 100.070305 99.91016 L -392.61328 -162.05469"/>
    <path fill="none" stroke="#0000ff" d="M -392.61328 -162.05469 L 159.95703 -239.69531"/>
    <path fill="none" stroke="#0000ff" d="M 159.95703 -239.69531 L -241.41016 147.94922"/>
    <path fill="none" stroke="#0000ff" d="M -241.41016 147.94922 L -144.53125 -401.5781"/>
    <path fill="none" stroke="#0000ff" d="M -144.53125 -401.5781 L 100.07812 99.94922"/>
    <path fill="none" stroke="#0000ff" d="M 100.07812 99.94922 L -361.94528 -223.51563"/>
    <path fill="none" stroke="#0000ff" d="M -361.94528 -223.51563 L 201.96875 -233.37889"/>
    <path fill="none" stroke="#0000ff" d="M 201.96875 -233.37889 L -248.46094 106.046875"/>
    <path fill="none" stroke="#0000ff" d="M -248.46094 106.046875 L -83.546875 -433.3047"/>
    <path fill="none" stroke="#0000ff" d="M -83.546875 -433.3047 L 100.10547 99.95703"/>
    <path fill="none" stroke="#0000ff" d="M 100.10547 99.95703 L -323.4922 -281.4414"/>
    <path fill="none" stroke="#0000ff" d="M -323.4922 -281.4414 L 243.3828 -221.84766"/>
    <path fill="none" stroke="#0000ff" d="M 243.3828 -221.84766 L -250.26563 63.12891"/>
    <path fill="none" stroke="#0000ff" d="M -250.26563 63.12891 L -18.445313 -457.60156"/>
    <path fill="none" stroke="#0000ff" d="M -18.445313 -457.60156 L 100.070305 99.94141"/>
    <path fill="none" stroke="#0000ff" d="M 100.070305 99.94141 L -277.80078 -334.78906"/>
    <path fill="none" stroke="#0000ff" d="M -277.80078 -334.78906 L 283.4414 -205.24219"/>
    <path fill="none" stroke="#0000ff" d="M 283.4414 -205.24219 L -246.76563 19.828125"/>
    <path fill="none" stroke="#0000ff" d="M -246.76563 19.828125 L 49.902348 -473.89453"/>
    <path fill="none" stroke="#0000ff" d="M 49.902348 -473.89453 L 100.07812 99.91797"/>
    <path fill="none" stroke="#0000ff" d="M 100.07812 99.91797 L -225.38281 -382.57422"/>
    <path fill="none" stroke="#0000ff" d="M -225.38281 -382.57422 L 321.51563 -183.51563"/>
    <path fill="none" stroke="#0000ff" d="M 321.51563 -183.51563 L -237.9453 -23.117188"/>
    <path fill="none" stroke="#0000ff" d="M -237.9453 -23.117188 L 120.34766 -481.7578"/>
    <path fill="none" stroke="#0000ff" d="M 120.34766 -481.7578 L 100.046875 99.88671"/>
    <path fill="none" stroke="#0000ff" d="M 100.046875 99.88671 L -166.88281 -424.03516"/>
    <path fill="none" stroke="#0000ff" d="M -166.88281 -424.03516 L 357.04688 -157.1211"/>
    <path fill="none" stroke="#0000ff" d="M 357.04688 -157.1211 L -223.71095 -65.12109"/>
    <path fill="none" stroke="#0000ff" d="M -223.71095 -65.12109 L 192.07031 -480.89847"/>
    <path fill="none" stroke="#0000ff" d="M 192.07031 -480.89847 L 100.06641 99.859375"/>
    <path fill="none" stroke="#0000ff" d="M 100.06641 99.859375 L -103.11328 -458.3125"/>
    <path fill="none" stroke="#0000ff" d="M -103.11328 -458.3125 L 389.33594 -126.15234"/>
    <path fill="none" stroke="#0000ff" d="M 389.33594 -126.15234 L -204.30469 -105.4375"/>
    <path fill="none" stroke="#0000ff" d="M -204.30469 -105.4375 L 263.75 -471.1719"/>
    <path fill="none" stroke="#0000ff" d="M 263.75 -471.1719 L 100.03906 99.82422"/>
</svg>
